<svg width="135" height="40" viewBox="0 0 50 50
0" fill="none" xmlns="http://www.w3.org/2000/svg">
<path d="M26.1436 33.2905H24.4157C21.7112 38.0234 17.4291 39.7513 11.7947 39.7513C3.90652 39.7513 0.751253 36.2955 0.751253 29.384C0.751253 21.5709 4.80802 17.8147 13.5977 17.8147H23.364V14.7345C23.364 12.7813 22.9884 12.2554 21.7112 12.2554C20.2838 12.2554 19.8331 12.8564 19.8331 16.1619H2.40401C2.40401 6.92148 8.26379 0.686079 21.6361 0.686079C34.3323 0.686079 40.4174 6.32048 40.4174 18.1903V39H23.7396L26.1436 33.2905ZM23.1386 26.2287V23.5242H21.4107C20.4341 23.5242 19.9082 24.2754 19.9082 25.8531C19.9082 27.5058 20.1336 28.2571 21.561 28.2571C22.9884 28.2571 23.1386 27.4307 23.1386 26.2287ZM59.1512 24.6511H61.0294L61.7055 1.43734H80.0361L72.5235 39H47.4317L39.9191 1.43734H58.4L59.1512 24.6511ZM119.398 8.64937V28.0317H102.494V24.3506C102.494 21.2704 102.269 20.5192 101.292 20.5192C100.241 20.5192 99.9402 21.2704 99.9402 23.2988V39H81.9101V1.43734H101.668L99.865 11.9549H101.593L102.945 7.97324C104.673 2.93984 107.528 0.686079 112.186 0.686079C117.069 0.686079 119.398 3.24034 119.398 8.64937Z" fill="white"/>
<path d="M120.922 32.8397C120.922 28.2571 123.251 25.9282 127.834 25.9282C132.417 25.9282 134.745 28.2571 134.745 32.8397C134.745 37.2721 132.266 39.7513 127.834 39.7513C123.402 39.7513 120.922 37.2721 120.922 32.8397Z" fill="#FFBB00"/>
</svg>
