<svg width="179" height="182" viewBox="0 0 179 182" fill="none" xmlns="http://www.w3.org/2000/svg">
<rect width="179" height="182" rx="89.5" fill="white"/>
<g clip-path="url(#clip0_305_10)">
<path d="M100.902 122.01H97.273C91.5936 131.949 82.6011 135.578 70.7688 135.578C54.2037 135.578 47.5776 128.321 47.5776 113.806C47.5776 97.3989 56.0968 89.5108 74.5551 89.5108H95.0644V83.0425C95.0644 78.9406 94.2755 77.8363 91.5936 77.8363C88.5961 77.8363 87.6495 79.0984 87.6495 86.04H51.0484C51.0484 66.6351 63.354 53.5408 91.4358 53.5408C118.098 53.5408 130.877 65.373 130.877 90.2996V134H95.8532L100.902 122.01ZM94.5911 107.18V101.501H90.9625C88.9116 101.501 87.8072 103.078 87.8072 106.391C87.8072 109.862 88.2805 111.44 91.278 111.44C94.2755 111.44 94.5911 109.704 94.5911 107.18Z" fill="#101010"/>
<path d="M102.578 61.6766C102.578 52.053 107.468 47.1624 117.092 47.1624C126.715 47.1624 131.606 52.053 131.606 61.6766C131.606 70.9846 126.4 76.1908 117.092 76.1908C107.784 76.1908 102.578 70.9846 102.578 61.6766Z" fill="#FFBB00"/>
</g>
<defs>
<clipPath id="clip0_305_10">
<rect width="87" height="90" fill="white" transform="translate(46 46)"/>
</clipPath>
</defs>
</svg>
