<svg width="88" height="107" viewBox="0 0 88 107" fill="none" xmlns="http://www.w3.org/2000/svg">
<path d="M54.9016 93.01H51.273C45.5936 102.949 36.6011 106.578 24.7688 106.578C8.20369 106.578 1.57763 99.3205 1.57763 84.8063C1.57763 68.3989 10.0968 60.5108 28.5551 60.5108H49.0644V54.0425C49.0644 49.9406 48.2755 48.8363 45.5936 48.8363C42.5961 48.8363 41.6495 50.0984 41.6495 57.04H5.04842C5.04842 37.6351 17.354 24.5408 45.4358 24.5408C72.0978 24.5408 84.8766 36.373 84.8766 61.2996V105H49.8532L54.9016 93.01ZM48.5911 78.1803V72.5008H44.9625C42.9116 72.5008 41.8072 74.0784 41.8072 77.3914C41.8072 80.8622 42.2805 82.4399 45.278 82.4399C48.2755 82.4399 48.5911 80.7045 48.5911 78.1803Z" fill="white"/>
<path d="M56.5776 30.0634C56.5776 20.4399 61.4683 15.5492 71.0918 15.5492C80.7154 15.5492 85.6061 20.4399 85.6061 30.0634C85.6061 39.3714 80.3999 44.5776 71.0918 44.5776C61.7838 44.5776 56.5776 39.3714 56.5776 30.0634Z" fill="#FFBB00"/>
</svg>
