<svg width="609" height="529" viewBox="0 0 609 529" fill="none" xmlns="http://www.w3.org/2000/svg">
<rect width="609" height="529" rx="60" fill="white"/>
<path d="M154.202 307.427H147.976C138.231 324.481 122.802 330.707 102.499 330.707C74.0762 330.707 62.707 318.255 62.707 293.351C62.707 265.198 77.3246 251.664 108.996 251.664H144.187V240.565C144.187 233.527 142.833 231.632 138.231 231.632C133.088 231.632 131.464 233.798 131.464 245.708H68.6623C68.6623 212.413 89.7766 189.945 137.961 189.945C183.708 189.945 205.635 210.247 205.635 253.017V328H145.54L154.202 307.427ZM143.374 281.982V272.237H137.148C133.629 272.237 131.734 274.944 131.734 280.628C131.734 286.583 132.547 289.29 137.69 289.29C142.833 289.29 143.374 286.313 143.374 281.982ZM273.137 276.297H279.905L282.341 192.652H348.391L321.321 328H230.909L203.839 192.652H270.43L273.137 276.297ZM490.221 218.639V288.478H429.314V275.214C429.314 264.116 428.502 261.409 424.983 261.409C421.193 261.409 420.111 264.116 420.111 271.424V328H355.143V192.652H426.337L419.84 230.549H426.066L430.938 216.202C437.164 198.066 447.451 189.945 464.234 189.945C481.829 189.945 490.221 199.149 490.221 218.639Z" fill="black"/>
<path d="M495.715 305.803C495.715 289.29 504.107 280.899 520.619 280.899C537.132 280.899 545.523 289.29 545.523 305.803C545.523 321.774 536.59 330.707 520.619 330.707C504.648 330.707 495.715 321.774 495.715 305.803Z" fill="#FFBB00"/>
</svg>
